<?xml version="1.0" encoding="UTF-8" standalone="no"?><svg xmlns="http://www.w3.org/2000/svg" xmlns:xlink="http://www.w3.org/1999/xlink" contentScriptType="application/ecmascript" contentStyleType="text/css" height="469px" preserveAspectRatio="none" style="width:441px;height:469px;" version="1.1" viewBox="0 0 441 469" width="441px" zoomAndPan="magnify"><defs><filter height="300%" id="f5yxxo09cnvvz" width="300%" x="-1" y="-1"><feGaussianBlur result="blurOut" stdDeviation="2.0"/><feColorMatrix in="blurOut" result="blurOut2" type="matrix" values="0 0 0 0 0 0 0 0 0 0 0 0 0 0 0 0 0 0 .4 0"/><feOffset dx="4.0" dy="4.0" in="blurOut2" result="blurOut3"/><feBlend in="SourceGraphic" in2="blurOut3" mode="normal"/></filter></defs><g><!--cluster de.gematik.ti.cardreader.provider.usb.identos.entities--><polygon fill="#FFFFFF" filter="url(#f5yxxo09cnvvz)" points="22,80,409,80,416,103.6094,419,103.6094,419,457,22,457,22,80" style="stroke: #000000; stroke-width: 1.5;"/><line style="stroke: #000000; stroke-width: 1.5;" x1="22" x2="416" y1="103.6094" y2="103.6094"/><text fill="#000000" font-family="sans-serif" font-size="14" font-weight="bold" lengthAdjust="spacingAndGlyphs" textLength="381" x="26" y="96.5332">de.gematik.ti.cardreader.provider.usb.identos.entities</text><!--class IdentosCardReader--><rect fill="#FEFECE" filter="url(#f5yxxo09cnvvz)" height="324.7188" id="IdentosCardReader" style="stroke: #A80036; stroke-width: 1.5;" width="146" x="147" y="116"/><ellipse cx="164.25" cy="132" fill="#ADD1B2" rx="11" ry="11" style="stroke: #A80036; stroke-width: 1.0;"/><path d="M166.25,128.5 Q166.4531,128 166.6875,127.75 Q166.9219,127.5 167.1875,127.5 Q167.6563,127.5 167.9531,127.7813 Q168.25,128.0625 168.25,128.7188 L168.25,130.2813 Q168.25,130.9375 167.9688,131.2188 Q167.6875,131.5 167.25,131.5 Q166.8594,131.5 166.6094,131.3281 Q166.3594,131.1563 166.25,130.7031 Q166.2031,130.3906 166.0313,130.2188 Q165.7188,129.8906 165.1563,129.6953 Q164.5938,129.5 164.0313,129.5 Q163.3281,129.5 162.7422,129.7813 Q162.1563,130.0625 161.7031,130.6875 Q161.25,131.3125 161.25,132.1719 L161.25,133.0938 Q161.25,134.125 162.0938,134.8125 Q162.9375,135.5 164.4375,135.5 Q165.3281,135.5 165.9531,135.2969 Q166.3125,135.1875 166.7188,134.8281 Q166.9844,134.625 167.125,134.5625 Q167.2656,134.5 167.4375,134.5 Q167.7656,134.5 168.0078,134.7578 Q168.25,135.0156 168.25,135.375 Q168.25,135.7188 167.9063,136.125 Q167.4063,136.7188 166.6094,137.0469 Q165.5625,137.5 164.2813,137.5 Q162.7813,137.5 161.5781,136.9063 Q160.6094,136.4375 159.9297,135.4219 Q159.25,134.4063 159.25,133.2031 L159.25,132.1094 Q159.25,130.8594 159.8516,129.7656 Q160.4531,128.6719 161.5078,128.0859 Q162.5625,127.5 163.75,127.5 Q164.4688,127.5 165.0938,127.75 Q165.7188,128 166.25,128.5 Z "/><text fill="#000000" font-family="sans-serif" font-size="12" lengthAdjust="spacingAndGlyphs" textLength="109" x="178.75" y="136.9102">IdentosCardReader</text><line style="stroke: #A80036; stroke-width: 1.5;" x1="148" x2="292" y1="148" y2="148"/><rect fill="none" height="6" style="stroke: #C82930; stroke-width: 1.0;" width="6" x="155" y="157.418"/><text fill="#000000" font-family="sans-serif" font-size="11" lengthAdjust="spacingAndGlyphs" text-decoration="underline" textLength="65" x="167" y="163.4189">LOG : Logger</text><rect fill="none" height="6" style="stroke: #C82930; stroke-width: 1.0;" width="6" x="155" y="171.2539"/><text fill="#000000" font-family="sans-serif" font-size="11" lengthAdjust="spacingAndGlyphs" text-decoration="underline" textLength="104" x="167" y="177.2549">PROTO_ID_T_1 : byte</text><rect fill="none" height="6" style="stroke: #C82930; stroke-width: 1.0;" width="6" x="155" y="185.0898"/><text fill="#000000" font-family="sans-serif" font-size="11" lengthAdjust="spacingAndGlyphs" textLength="120" x="167" y="191.0908">cardReader : UsbReader</text><rect fill="none" height="6" style="stroke: #C82930; stroke-width: 1.0;" width="6" x="155" y="198.9258"/><text fill="#000000" font-family="sans-serif" font-size="11" lengthAdjust="spacingAndGlyphs" textLength="82" x="167" y="204.9268">context : Context</text><rect fill="none" height="6" style="stroke: #C82930; stroke-width: 1.0;" width="6" x="155" y="212.7617"/><text fill="#000000" font-family="sans-serif" font-size="11" lengthAdjust="spacingAndGlyphs" textLength="90" x="167" y="218.7627">initialized : boolean</text><line style="stroke: #A80036; stroke-width: 1.5;" x1="148" x2="292" y1="225.1797" y2="225.1797"/><ellipse cx="158" cy="237.5977" fill="#84BE84" rx="3" ry="3" style="stroke: #038048; stroke-width: 1.0;"/><text fill="#000000" font-family="sans-serif" font-size="11" lengthAdjust="spacingAndGlyphs" textLength="101" x="167" y="240.5986">IdentosCardReader()</text><ellipse cx="158" cy="251.4336" fill="#84BE84" rx="3" ry="3" style="stroke: #038048; stroke-width: 1.0;"/><text fill="#000000" font-family="sans-serif" font-size="11" lengthAdjust="spacingAndGlyphs" textLength="45" x="167" y="254.4346">initialize()</text><ellipse cx="158" cy="265.2695" fill="#84BE84" rx="3" ry="3" style="stroke: #038048; stroke-width: 1.0;"/><text fill="#000000" font-family="sans-serif" font-size="11" lengthAdjust="spacingAndGlyphs" textLength="59" x="167" y="268.2705">isInitialized()</text><ellipse cx="158" cy="279.1055" fill="#84BE84" rx="3" ry="3" style="stroke: #038048; stroke-width: 1.0;"/><text fill="#000000" font-family="sans-serif" font-size="11" lengthAdjust="spacingAndGlyphs" textLength="47" x="167" y="282.1064">connect()</text><ellipse cx="158" cy="292.9414" fill="#84BE84" rx="3" ry="3" style="stroke: #038048; stroke-width: 1.0;"/><text fill="#000000" font-family="sans-serif" font-size="11" lengthAdjust="spacingAndGlyphs" textLength="47" x="167" y="295.9424">connect()</text><ellipse cx="158" cy="306.7773" fill="#84BE84" rx="3" ry="3" style="stroke: #038048; stroke-width: 1.0;"/><text fill="#000000" font-family="sans-serif" font-size="11" lengthAdjust="spacingAndGlyphs" textLength="50" x="167" y="309.7783">getName()</text><ellipse cx="158" cy="320.6133" fill="#84BE84" rx="3" ry="3" style="stroke: #038048; stroke-width: 1.0;"/><text fill="#000000" font-family="sans-serif" font-size="11" lengthAdjust="spacingAndGlyphs" textLength="76" x="167" y="323.6143">isCardPresent()</text><ellipse cx="158" cy="334.4492" fill="#84BE84" rx="3" ry="3" style="stroke: #038048; stroke-width: 1.0;"/><text fill="#000000" font-family="sans-serif" font-size="11" lengthAdjust="spacingAndGlyphs" textLength="103" x="167" y="337.4502">waitForCardAbsent()</text><ellipse cx="158" cy="348.2852" fill="#84BE84" rx="3" ry="3" style="stroke: #038048; stroke-width: 1.0;"/><text fill="#000000" font-family="sans-serif" font-size="11" lengthAdjust="spacingAndGlyphs" textLength="105" x="167" y="351.2861">waitForCardPresent()</text><ellipse cx="158" cy="362.1211" fill="#84BE84" rx="3" ry="3" style="stroke: #038048; stroke-width: 1.0;"/><text fill="#000000" font-family="sans-serif" font-size="11" lengthAdjust="spacingAndGlyphs" textLength="45" x="167" y="365.1221">toString()</text><ellipse cx="158" cy="375.957" fill="#84BE84" rx="3" ry="3" style="stroke: #038048; stroke-width: 1.0;"/><text fill="#000000" font-family="sans-serif" font-size="11" lengthAdjust="spacingAndGlyphs" textLength="58" x="167" y="378.958">getReader()</text><rect fill="#F24D5C" height="6" style="stroke: #C82930; stroke-width: 1.0;" width="6" x="155" y="386.793"/><text fill="#000000" font-family="sans-serif" font-size="11" lengthAdjust="spacingAndGlyphs" textLength="45" x="167" y="392.7939">initialize()</text><rect fill="#F24D5C" height="6" style="stroke: #C82930; stroke-width: 1.0;" width="6" x="155" y="400.6289"/><text fill="#000000" font-family="sans-serif" font-size="11" lengthAdjust="spacingAndGlyphs" textLength="78" x="167" y="406.6299">hasPermission()</text><rect fill="#F24D5C" height="6" style="stroke: #C82930; stroke-width: 1.0;" width="6" x="155" y="414.4648"/><text fill="#000000" font-family="sans-serif" font-size="11" lengthAdjust="spacingAndGlyphs" textLength="94" x="167" y="420.4658">registerForEvents()</text><rect fill="#F24D5C" height="6" style="stroke: #C82930; stroke-width: 1.0;" width="6" x="155" y="428.3008"/><text fill="#000000" font-family="sans-serif" font-size="11" lengthAdjust="spacingAndGlyphs" textLength="80" x="167" y="434.3018">checkInitialized()</text><!--class ICardReader--><rect fill="#FEFECE" filter="url(#f5yxxo09cnvvz)" height="48" id="ICardReader" style="stroke: #A80036; stroke-width: 1.5;" width="103" x="168.5" y="8"/><ellipse cx="183.5" cy="24" fill="#ADD1B2" rx="11" ry="11" style="stroke: #A80036; stroke-width: 1.0;"/><path d="M185.5,20.5 Q185.7031,20 185.9375,19.75 Q186.1719,19.5 186.4375,19.5 Q186.9063,19.5 187.2031,19.7813 Q187.5,20.0625 187.5,20.7188 L187.5,22.2813 Q187.5,22.9375 187.2188,23.2188 Q186.9375,23.5 186.5,23.5 Q186.1094,23.5 185.8594,23.3281 Q185.6094,23.1563 185.5,22.7031 Q185.4531,22.3906 185.2813,22.2188 Q184.9688,21.8906 184.4063,21.6953 Q183.8438,21.5 183.2813,21.5 Q182.5781,21.5 181.9922,21.7813 Q181.4063,22.0625 180.9531,22.6875 Q180.5,23.3125 180.5,24.1719 L180.5,25.0938 Q180.5,26.125 181.3438,26.8125 Q182.1875,27.5 183.6875,27.5 Q184.5781,27.5 185.2031,27.2969 Q185.5625,27.1875 185.9688,26.8281 Q186.2344,26.625 186.375,26.5625 Q186.5156,26.5 186.6875,26.5 Q187.0156,26.5 187.2578,26.7578 Q187.5,27.0156 187.5,27.375 Q187.5,27.7188 187.1563,28.125 Q186.6563,28.7188 185.8594,29.0469 Q184.8125,29.5 183.5313,29.5 Q182.0313,29.5 180.8281,28.9063 Q179.8594,28.4375 179.1797,27.4219 Q178.5,26.4063 178.5,25.2031 L178.5,24.1094 Q178.5,22.8594 179.1016,21.7656 Q179.7031,20.6719 180.7578,20.0859 Q181.8125,19.5 183,19.5 Q183.7188,19.5 184.3438,19.75 Q184.9688,20 185.5,20.5 Z "/><text fill="#000000" font-family="sans-serif" font-size="12" lengthAdjust="spacingAndGlyphs" textLength="71" x="197.5" y="28.9102">ICardReader</text><line style="stroke: #A80036; stroke-width: 1.5;" x1="169.5" x2="270.5" y1="40" y2="40"/><line style="stroke: #A80036; stroke-width: 1.5;" x1="169.5" x2="270.5" y1="48" y2="48"/><!--link ICardReader to IdentosCardReader--><path d="M220,76.267 C220,88.02 220,101.476 220,115.735 " fill="none" id="ICardReader-IdentosCardReader" style="stroke: #A80036; stroke-width: 1.0;"/><polygon fill="none" points="213,76.002,220,56.002,227,76.002,213,76.002" style="stroke: #A80036; stroke-width: 1.0;"/><!--
@startuml


    package de.gematik.ti.cardreader.provider.usb.identos.entities {
      class IdentosCardReader {
          {static} - LOG : Logger
          {static} - PROTO_ID_T_1 : byte
          - cardReader : UsbReader
          - context : Context
          - initialized : boolean
          + IdentosCardReader()
          + initialize()
          + isInitialized()
          + connect()
          + connect()
          + getName()
          + isCardPresent()
          + waitForCardAbsent()
          + waitForCardPresent()
          + toString()
          + getReader()
          - initialize()
          - hasPermission()
          - registerForEvents()
          - checkInitialized()
      }
    }

  IdentosCardReader -up-|> ICardReader

@enduml

PlantUML version 1.2019.06(Fri May 24 19:10:25 CEST 2019)
(APACHE source distribution)
Java Runtime: OpenJDK Runtime Environment
JVM: OpenJDK 64-Bit Server VM
Java Version: 1.8.0_202-release-1483-b03
Operating System: Windows 7
OS Version: 6.1
Default Encoding: Cp1252
Language: de
Country: DE
--></g></svg>