<?xml version="1.0" encoding="UTF-8" standalone="no"?><svg xmlns="http://www.w3.org/2000/svg" xmlns:xlink="http://www.w3.org/1999/xlink" contentScriptType="application/ecmascript" contentStyleType="text/css" height="220px" preserveAspectRatio="none" style="width:441px;height:220px;" version="1.1" viewBox="0 0 441 220" width="441px" zoomAndPan="magnify"><defs><filter height="300%" id="fgmsio49dulw1" width="300%" x="-1" y="-1"><feGaussianBlur result="blurOut" stdDeviation="2.0"/><feColorMatrix in="blurOut" result="blurOut2" type="matrix" values="0 0 0 0 0 0 0 0 0 0 0 0 0 0 0 0 0 0 .4 0"/><feOffset dx="4.0" dy="4.0" in="blurOut2" result="blurOut3"/><feBlend in="SourceGraphic" in2="blurOut3" mode="normal"/></filter></defs><g><!--cluster de.gematik.ti.cardreader.provider.usb.identos.entities--><polygon fill="#FFFFFF" filter="url(#fgmsio49dulw1)" points="22,80,409,80,416,103.6094,419,103.6094,419,208,22,208,22,80" style="stroke: #000000; stroke-width: 1.5;"/><line style="stroke: #000000; stroke-width: 1.5;" x1="22" x2="416" y1="103.6094" y2="103.6094"/><text fill="#000000" font-family="sans-serif" font-size="14" font-weight="bold" lengthAdjust="spacingAndGlyphs" textLength="381" x="26" y="96.5332">de.gematik.ti.cardreader.provider.usb.identos.entities</text><!--class IdentosEventListener--><rect fill="#FEFECE" filter="url(#fgmsio49dulw1)" height="75.6719" id="IdentosEventListener" style="stroke: #A80036; stroke-width: 1.5;" width="148" x="146" y="116"/><ellipse cx="161" cy="132" fill="#ADD1B2" rx="11" ry="11" style="stroke: #A80036; stroke-width: 1.0;"/><path d="M163,128.5 Q163.2031,128 163.4375,127.75 Q163.6719,127.5 163.9375,127.5 Q164.4063,127.5 164.7031,127.7813 Q165,128.0625 165,128.7188 L165,130.2813 Q165,130.9375 164.7188,131.2188 Q164.4375,131.5 164,131.5 Q163.6094,131.5 163.3594,131.3281 Q163.1094,131.1563 163,130.7031 Q162.9531,130.3906 162.7813,130.2188 Q162.4688,129.8906 161.9063,129.6953 Q161.3438,129.5 160.7813,129.5 Q160.0781,129.5 159.4922,129.7813 Q158.9063,130.0625 158.4531,130.6875 Q158,131.3125 158,132.1719 L158,133.0938 Q158,134.125 158.8438,134.8125 Q159.6875,135.5 161.1875,135.5 Q162.0781,135.5 162.7031,135.2969 Q163.0625,135.1875 163.4688,134.8281 Q163.7344,134.625 163.875,134.5625 Q164.0156,134.5 164.1875,134.5 Q164.5156,134.5 164.7578,134.7578 Q165,135.0156 165,135.375 Q165,135.7188 164.6563,136.125 Q164.1563,136.7188 163.3594,137.0469 Q162.3125,137.5 161.0313,137.5 Q159.5313,137.5 158.3281,136.9063 Q157.3594,136.4375 156.6797,135.4219 Q156,134.4063 156,133.2031 L156,132.1094 Q156,130.8594 156.6016,129.7656 Q157.2031,128.6719 158.2578,128.0859 Q159.3125,127.5 160.5,127.5 Q161.2188,127.5 161.8438,127.75 Q162.4688,128 163,128.5 Z "/><text fill="#000000" font-family="sans-serif" font-size="12" lengthAdjust="spacingAndGlyphs" textLength="116" x="175" y="136.9102">IdentosEventListener</text><line style="stroke: #A80036; stroke-width: 1.5;" x1="147" x2="293" y1="148" y2="148"/><rect fill="none" height="6" style="stroke: #C82930; stroke-width: 1.0;" width="6" x="154" y="157.418"/><text fill="#000000" font-family="sans-serif" font-size="11" lengthAdjust="spacingAndGlyphs" text-decoration="underline" textLength="65" x="166" y="163.4189">LOG : Logger</text><line style="stroke: #A80036; stroke-width: 1.5;" x1="147" x2="293" y1="169.8359" y2="169.8359"/><ellipse cx="157" cy="182.2539" fill="#84BE84" rx="3" ry="3" style="stroke: #038048; stroke-width: 1.0;"/><text fill="#000000" font-family="sans-serif" font-size="11" lengthAdjust="spacingAndGlyphs" textLength="70" x="166" y="185.2549">onCardEvent()</text><!--class OnCardEventListener--><rect fill="#FEFECE" filter="url(#fgmsio49dulw1)" height="48" id="OnCardEventListener" style="stroke: #A80036; stroke-width: 1.5;" width="150" x="145" y="8"/><ellipse cx="160" cy="24" fill="#ADD1B2" rx="11" ry="11" style="stroke: #A80036; stroke-width: 1.0;"/><path d="M162,20.5 Q162.2031,20 162.4375,19.75 Q162.6719,19.5 162.9375,19.5 Q163.4063,19.5 163.7031,19.7813 Q164,20.0625 164,20.7188 L164,22.2813 Q164,22.9375 163.7188,23.2188 Q163.4375,23.5 163,23.5 Q162.6094,23.5 162.3594,23.3281 Q162.1094,23.1563 162,22.7031 Q161.9531,22.3906 161.7813,22.2188 Q161.4688,21.8906 160.9063,21.6953 Q160.3438,21.5 159.7813,21.5 Q159.0781,21.5 158.4922,21.7813 Q157.9063,22.0625 157.4531,22.6875 Q157,23.3125 157,24.1719 L157,25.0938 Q157,26.125 157.8438,26.8125 Q158.6875,27.5 160.1875,27.5 Q161.0781,27.5 161.7031,27.2969 Q162.0625,27.1875 162.4688,26.8281 Q162.7344,26.625 162.875,26.5625 Q163.0156,26.5 163.1875,26.5 Q163.5156,26.5 163.7578,26.7578 Q164,27.0156 164,27.375 Q164,27.7188 163.6563,28.125 Q163.1563,28.7188 162.3594,29.0469 Q161.3125,29.5 160.0313,29.5 Q158.5313,29.5 157.3281,28.9063 Q156.3594,28.4375 155.6797,27.4219 Q155,26.4063 155,25.2031 L155,24.1094 Q155,22.8594 155.6016,21.7656 Q156.2031,20.6719 157.2578,20.0859 Q158.3125,19.5 159.5,19.5 Q160.2188,19.5 160.8438,19.75 Q161.4688,20 162,20.5 Z "/><text fill="#000000" font-family="sans-serif" font-size="12" lengthAdjust="spacingAndGlyphs" textLength="118" x="174" y="28.9102">OnCardEventListener</text><line style="stroke: #A80036; stroke-width: 1.5;" x1="146" x2="294" y1="40" y2="40"/><line style="stroke: #A80036; stroke-width: 1.5;" x1="146" x2="294" y1="48" y2="48"/><!--link OnCardEventListener to IdentosEventListener--><path d="M220,76.343 C220,89.255 220,103.285 220,115.771 " fill="none" id="OnCardEventListener-IdentosEventListener" style="stroke: #A80036; stroke-width: 1.0;"/><polygon fill="none" points="213,76.137,220,56.137,227,76.137,213,76.137" style="stroke: #A80036; stroke-width: 1.0;"/><!--
@startuml

    package de.gematik.ti.cardreader.provider.usb.identos.entities {
      class IdentosEventListener {
          {static} - LOG : Logger
          + onCardEvent()
      }
    }

  IdentosEventListener -up-|> OnCardEventListener

@enduml

PlantUML version 1.2019.06(Fri May 24 19:10:25 CEST 2019)
(APACHE source distribution)
Java Runtime: OpenJDK Runtime Environment
JVM: OpenJDK 64-Bit Server VM
Java Version: 1.8.0_202-release-1483-b03
Operating System: Windows 7
OS Version: 6.1
Default Encoding: Cp1252
Language: de
Country: DE
--></g></svg>