<?xml version="1.0" encoding="UTF-8" standalone="no"?><svg xmlns="http://www.w3.org/2000/svg" xmlns:xlink="http://www.w3.org/1999/xlink" contentScriptType="application/ecmascript" contentStyleType="text/css" height="400px" preserveAspectRatio="none" style="width:441px;height:400px;" version="1.1" viewBox="0 0 441 400" width="441px" zoomAndPan="magnify"><defs><filter height="300%" id="f1a5hrxuyq3oof" width="300%" x="-1" y="-1"><feGaussianBlur result="blurOut" stdDeviation="2.0"/><feColorMatrix in="blurOut" result="blurOut2" type="matrix" values="0 0 0 0 0 0 0 0 0 0 0 0 0 0 0 0 0 0 .4 0"/><feOffset dx="4.0" dy="4.0" in="blurOut2" result="blurOut3"/><feBlend in="SourceGraphic" in2="blurOut3" mode="normal"/></filter></defs><g><!--cluster de.gematik.ti.cardreader.provider.usb.identos.entities--><polygon fill="#FFFFFF" filter="url(#f1a5hrxuyq3oof)" points="22,80,409,80,416,103.6094,419,103.6094,419,388,22,388,22,80" style="stroke: #000000; stroke-width: 1.5;"/><line style="stroke: #000000; stroke-width: 1.5;" x1="22" x2="416" y1="103.6094" y2="103.6094"/><text fill="#000000" font-family="sans-serif" font-size="14" font-weight="bold" lengthAdjust="spacingAndGlyphs" textLength="381" x="26" y="96.5332">de.gematik.ti.cardreader.provider.usb.identos.entities</text><!--class IdentosCardChannel--><rect fill="#FEFECE" filter="url(#f1a5hrxuyq3oof)" height="255.5391" id="IdentosCardChannel" style="stroke: #A80036; stroke-width: 1.5;" width="308" x="66" y="116"/><ellipse cx="158.25" cy="132" fill="#ADD1B2" rx="11" ry="11" style="stroke: #A80036; stroke-width: 1.0;"/><path d="M160.25,128.5 Q160.4531,128 160.6875,127.75 Q160.9219,127.5 161.1875,127.5 Q161.6563,127.5 161.9531,127.7813 Q162.25,128.0625 162.25,128.7188 L162.25,130.2813 Q162.25,130.9375 161.9688,131.2188 Q161.6875,131.5 161.25,131.5 Q160.8594,131.5 160.6094,131.3281 Q160.3594,131.1563 160.25,130.7031 Q160.2031,130.3906 160.0313,130.2188 Q159.7188,129.8906 159.1563,129.6953 Q158.5938,129.5 158.0313,129.5 Q157.3281,129.5 156.7422,129.7813 Q156.1563,130.0625 155.7031,130.6875 Q155.25,131.3125 155.25,132.1719 L155.25,133.0938 Q155.25,134.125 156.0938,134.8125 Q156.9375,135.5 158.4375,135.5 Q159.3281,135.5 159.9531,135.2969 Q160.3125,135.1875 160.7188,134.8281 Q160.9844,134.625 161.125,134.5625 Q161.2656,134.5 161.4375,134.5 Q161.7656,134.5 162.0078,134.7578 Q162.25,135.0156 162.25,135.375 Q162.25,135.7188 161.9063,136.125 Q161.4063,136.7188 160.6094,137.0469 Q159.5625,137.5 158.2813,137.5 Q156.7813,137.5 155.5781,136.9063 Q154.6094,136.4375 153.9297,135.4219 Q153.25,134.4063 153.25,133.2031 L153.25,132.1094 Q153.25,130.8594 153.8516,129.7656 Q154.4531,128.6719 155.5078,128.0859 Q156.5625,127.5 157.75,127.5 Q158.4688,127.5 159.0938,127.75 Q159.7188,128 160.25,128.5 Z "/><text fill="#000000" font-family="sans-serif" font-size="12" lengthAdjust="spacingAndGlyphs" textLength="115" x="178.75" y="136.9102">IdentosCardChannel</text><line style="stroke: #A80036; stroke-width: 1.5;" x1="67" x2="373" y1="148" y2="148"/><rect fill="none" height="6" style="stroke: #C82930; stroke-width: 1.0;" width="6" x="74" y="157.418"/><text fill="#000000" font-family="sans-serif" font-size="11" lengthAdjust="spacingAndGlyphs" text-decoration="underline" textLength="282" x="86" y="163.4189">MANAGE_CHANNEL_COMMAND_CLOSE : CommandAPDU</text><rect fill="none" height="6" style="stroke: #C82930; stroke-width: 1.0;" width="6" x="74" y="171.2539"/><text fill="#000000" font-family="sans-serif" font-size="11" lengthAdjust="spacingAndGlyphs" text-decoration="underline" textLength="128" x="86" y="177.2549">RESPONSE_SUCCESS : int</text><rect fill="none" height="6" style="stroke: #C82930; stroke-width: 1.0;" width="6" x="74" y="185.0898"/><text fill="#000000" font-family="sans-serif" font-size="11" lengthAdjust="spacingAndGlyphs" text-decoration="underline" textLength="187" x="86" y="191.0908">LOW_CHANNEL_NUMBER_VALUE : int</text><rect fill="none" height="6" style="stroke: #C82930; stroke-width: 1.0;" width="6" x="74" y="198.9258"/><text fill="#000000" font-family="sans-serif" font-size="11" lengthAdjust="spacingAndGlyphs" text-decoration="underline" textLength="159" x="86" y="204.9268">MAX_CHANNEL_NO_VALUE : int</text><rect fill="none" height="6" style="stroke: #C82930; stroke-width: 1.0;" width="6" x="74" y="212.7617"/><text fill="#000000" font-family="sans-serif" font-size="11" lengthAdjust="spacingAndGlyphs" textLength="71" x="86" y="218.7627">channelNo : int</text><rect fill="none" height="6" style="stroke: #C82930; stroke-width: 1.0;" width="6" x="74" y="226.5977"/><text fill="#000000" font-family="sans-serif" font-size="11" lengthAdjust="spacingAndGlyphs" textLength="118" x="86" y="232.5986">channelClosed : boolean</text><line style="stroke: #A80036; stroke-width: 1.5;" x1="67" x2="373" y1="239.0156" y2="239.0156"/><polygon fill="#4177AF" points="77,247.4336,73,253.4336,81,253.4336" style="stroke: #1963A0; stroke-width: 1.0;"/><text fill="#000000" font-family="sans-serif" font-size="11" lengthAdjust="spacingAndGlyphs" textLength="105" x="86" y="254.4346">IdentosCardChannel()</text><polygon fill="#4177AF" points="77,261.2695,73,267.2695,81,267.2695" style="stroke: #1963A0; stroke-width: 1.0;"/><text fill="#000000" font-family="sans-serif" font-size="11" lengthAdjust="spacingAndGlyphs" textLength="105" x="86" y="268.2705">IdentosCardChannel()</text><ellipse cx="77" cy="279.1055" fill="#84BE84" rx="3" ry="3" style="stroke: #038048; stroke-width: 1.0;"/><text fill="#000000" font-family="sans-serif" font-size="11" lengthAdjust="spacingAndGlyphs" textLength="46" x="86" y="282.1064">getCard()</text><ellipse cx="77" cy="292.9414" fill="#84BE84" rx="3" ry="3" style="stroke: #038048; stroke-width: 1.0;"/><text fill="#000000" font-family="sans-serif" font-size="11" lengthAdjust="spacingAndGlyphs" textLength="99" x="86" y="295.9424">getChannelNumber()</text><ellipse cx="77" cy="306.7773" fill="#84BE84" rx="3" ry="3" style="stroke: #038048; stroke-width: 1.0;"/><text fill="#000000" font-family="sans-serif" font-size="11" lengthAdjust="spacingAndGlyphs" textLength="46" x="86" y="309.7783">transmit()</text><ellipse cx="77" cy="320.6133" fill="#84BE84" rx="3" ry="3" style="stroke: #038048; stroke-width: 1.0;"/><text fill="#000000" font-family="sans-serif" font-size="11" lengthAdjust="spacingAndGlyphs" textLength="46" x="86" y="323.6143">transmit()</text><ellipse cx="77" cy="334.4492" fill="#84BE84" rx="3" ry="3" style="stroke: #038048; stroke-width: 1.0;"/><text fill="#000000" font-family="sans-serif" font-size="11" lengthAdjust="spacingAndGlyphs" textLength="34" x="86" y="337.4502">close()</text><polygon fill="#4177AF" points="77,344.2852,73,350.2852,81,350.2852" style="stroke: #1963A0; stroke-width: 1.0;"/><text fill="#000000" font-family="sans-serif" font-size="11" lengthAdjust="spacingAndGlyphs" textLength="176" x="86" y="351.2861">modifyCommandForLogicalChannel()</text><rect fill="#F24D5C" height="6" style="stroke: #C82930; stroke-width: 1.0;" width="6" x="74" y="359.1211"/><text fill="#000000" font-family="sans-serif" font-size="11" lengthAdjust="spacingAndGlyphs" textLength="109" x="86" y="365.1221">checkChannelClosed()</text><!--class CardChannel--><rect fill="#FEFECE" filter="url(#f1a5hrxuyq3oof)" height="48" id="CardChannel" style="stroke: #A80036; stroke-width: 1.5;" width="106" x="167" y="8"/><ellipse cx="182" cy="24" fill="#ADD1B2" rx="11" ry="11" style="stroke: #A80036; stroke-width: 1.0;"/><path d="M184,20.5 Q184.2031,20 184.4375,19.75 Q184.6719,19.5 184.9375,19.5 Q185.4063,19.5 185.7031,19.7813 Q186,20.0625 186,20.7188 L186,22.2813 Q186,22.9375 185.7188,23.2188 Q185.4375,23.5 185,23.5 Q184.6094,23.5 184.3594,23.3281 Q184.1094,23.1563 184,22.7031 Q183.9531,22.3906 183.7813,22.2188 Q183.4688,21.8906 182.9063,21.6953 Q182.3438,21.5 181.7813,21.5 Q181.0781,21.5 180.4922,21.7813 Q179.9063,22.0625 179.4531,22.6875 Q179,23.3125 179,24.1719 L179,25.0938 Q179,26.125 179.8438,26.8125 Q180.6875,27.5 182.1875,27.5 Q183.0781,27.5 183.7031,27.2969 Q184.0625,27.1875 184.4688,26.8281 Q184.7344,26.625 184.875,26.5625 Q185.0156,26.5 185.1875,26.5 Q185.5156,26.5 185.7578,26.7578 Q186,27.0156 186,27.375 Q186,27.7188 185.6563,28.125 Q185.1563,28.7188 184.3594,29.0469 Q183.3125,29.5 182.0313,29.5 Q180.5313,29.5 179.3281,28.9063 Q178.3594,28.4375 177.6797,27.4219 Q177,26.4063 177,25.2031 L177,24.1094 Q177,22.8594 177.6016,21.7656 Q178.2031,20.6719 179.2578,20.0859 Q180.3125,19.5 181.5,19.5 Q182.2188,19.5 182.8438,19.75 Q183.4688,20 184,20.5 Z "/><text fill="#000000" font-family="sans-serif" font-size="12" lengthAdjust="spacingAndGlyphs" textLength="74" x="196" y="28.9102">CardChannel</text><line style="stroke: #A80036; stroke-width: 1.5;" x1="168" x2="272" y1="40" y2="40"/><line style="stroke: #A80036; stroke-width: 1.5;" x1="168" x2="272" y1="48" y2="48"/><!--link CardChannel to IdentosCardChannel--><path d="M220,76.662 C220,88.417 220,101.751 220,115.633 " fill="none" id="CardChannel-IdentosCardChannel" style="stroke: #A80036; stroke-width: 1.0;"/><polygon fill="none" points="213,76.276,220,56.276,227,76.276,213,76.276" style="stroke: #A80036; stroke-width: 1.0;"/><!--
@startuml

    package de.gematik.ti.cardreader.provider.usb.identos.entities {
      class IdentosCardChannel {
          {static} - MANAGE_CHANNEL_COMMAND_CLOSE : CommandAPDU
          {static} - RESPONSE_SUCCESS : int
          {static} - LOW_CHANNEL_NUMBER_VALUE : int
          {static} - MAX_CHANNEL_NO_VALUE : int
          - channelNo : int
          - channelClosed : boolean
          ~ IdentosCardChannel()
          ~ IdentosCardChannel()
          + getCard()
          + getChannelNumber()
          + transmit()
          + transmit()
          + close()
          ~ modifyCommandForLogicalChannel()
          - checkChannelClosed()
      }
    }

  IdentosCardChannel -up-|> CardChannel

@enduml

PlantUML version 1.2019.06(Fri May 24 19:10:25 CEST 2019)
(APACHE source distribution)
Java Runtime: OpenJDK Runtime Environment
JVM: OpenJDK 64-Bit Server VM
Java Version: 1.8.0_202-release-1483-b03
Operating System: Windows 7
OS Version: 6.1
Default Encoding: Cp1252
Language: de
Country: DE
--></g></svg>