<?xml version="1.0" encoding="UTF-8" standalone="no"?><svg xmlns="http://www.w3.org/2000/svg" xmlns:xlink="http://www.w3.org/1999/xlink" contentScriptType="application/ecmascript" contentStyleType="text/css" height="441px" preserveAspectRatio="none" style="width:441px;height:441px;" version="1.1" viewBox="0 0 441 441" width="441px" zoomAndPan="magnify"><defs><filter height="300%" id="frh57jctdq2ec" width="300%" x="-1" y="-1"><feGaussianBlur result="blurOut" stdDeviation="2.0"/><feColorMatrix in="blurOut" result="blurOut2" type="matrix" values="0 0 0 0 0 0 0 0 0 0 0 0 0 0 0 0 0 0 .4 0"/><feOffset dx="4.0" dy="4.0" in="blurOut2" result="blurOut3"/><feBlend in="SourceGraphic" in2="blurOut3" mode="normal"/></filter></defs><g><!--cluster de.gematik.ti.cardreader.provider.usb.identos.entities--><polygon fill="#FFFFFF" filter="url(#frh57jctdq2ec)" points="22,80,409,80,416,103.6094,419,103.6094,419,429,22,429,22,80" style="stroke: #000000; stroke-width: 1.5;"/><line style="stroke: #000000; stroke-width: 1.5;" x1="22" x2="416" y1="103.6094" y2="103.6094"/><text fill="#000000" font-family="sans-serif" font-size="14" font-weight="bold" lengthAdjust="spacingAndGlyphs" textLength="381" x="26" y="96.5332">de.gematik.ti.cardreader.provider.usb.identos.entities</text><!--class IdentosCard--><rect fill="#FEFECE" filter="url(#frh57jctdq2ec)" height="297.0469" id="IdentosCard" style="stroke: #A80036; stroke-width: 1.5;" width="301" x="69.5" y="116"/><ellipse cx="181.75" cy="132" fill="#ADD1B2" rx="11" ry="11" style="stroke: #A80036; stroke-width: 1.0;"/><path d="M183.75,128.5 Q183.9531,128 184.1875,127.75 Q184.4219,127.5 184.6875,127.5 Q185.1563,127.5 185.4531,127.7813 Q185.75,128.0625 185.75,128.7188 L185.75,130.2813 Q185.75,130.9375 185.4688,131.2188 Q185.1875,131.5 184.75,131.5 Q184.3594,131.5 184.1094,131.3281 Q183.8594,131.1563 183.75,130.7031 Q183.7031,130.3906 183.5313,130.2188 Q183.2188,129.8906 182.6563,129.6953 Q182.0938,129.5 181.5313,129.5 Q180.8281,129.5 180.2422,129.7813 Q179.6563,130.0625 179.2031,130.6875 Q178.75,131.3125 178.75,132.1719 L178.75,133.0938 Q178.75,134.125 179.5938,134.8125 Q180.4375,135.5 181.9375,135.5 Q182.8281,135.5 183.4531,135.2969 Q183.8125,135.1875 184.2188,134.8281 Q184.4844,134.625 184.625,134.5625 Q184.7656,134.5 184.9375,134.5 Q185.2656,134.5 185.5078,134.7578 Q185.75,135.0156 185.75,135.375 Q185.75,135.7188 185.4063,136.125 Q184.9063,136.7188 184.1094,137.0469 Q183.0625,137.5 181.7813,137.5 Q180.2813,137.5 179.0781,136.9063 Q178.1094,136.4375 177.4297,135.4219 Q176.75,134.4063 176.75,133.2031 L176.75,132.1094 Q176.75,130.8594 177.3516,129.7656 Q177.9531,128.6719 179.0078,128.0859 Q180.0625,127.5 181.25,127.5 Q181.9688,127.5 182.5938,127.75 Q183.2188,128 183.75,128.5 Z "/><text fill="#000000" font-family="sans-serif" font-size="12" lengthAdjust="spacingAndGlyphs" textLength="68" x="202.25" y="136.9102">IdentosCard</text><line style="stroke: #A80036; stroke-width: 1.5;" x1="70.5" x2="369.5" y1="148" y2="148"/><polygon fill="none" points="80.5,155.418,84.5,159.418,80.5,163.418,76.5,159.418" style="stroke: #B38D22; stroke-width: 1.0;"/><text fill="#000000" font-family="sans-serif" font-size="11" lengthAdjust="spacingAndGlyphs" text-decoration="underline" textLength="96" x="89.5" y="163.4189">PROTO_T_1 : String</text><rect fill="none" height="6" style="stroke: #C82930; stroke-width: 1.0;" width="6" x="77.5" y="171.2539"/><text fill="#000000" font-family="sans-serif" font-size="11" lengthAdjust="spacingAndGlyphs" text-decoration="underline" textLength="275" x="89.5" y="177.2549">MANAGE_CHANNEL_COMMAND_OPEN : CommandAPDU</text><rect fill="none" height="6" style="stroke: #C82930; stroke-width: 1.0;" width="6" x="77.5" y="185.0898"/><text fill="#000000" font-family="sans-serif" font-size="11" lengthAdjust="spacingAndGlyphs" text-decoration="underline" textLength="128" x="89.5" y="191.0908">RESPONSE_SUCCESS : int</text><rect fill="none" height="6" style="stroke: #C82930; stroke-width: 1.0;" width="6" x="77.5" y="198.9258"/><text fill="#000000" font-family="sans-serif" font-size="11" lengthAdjust="spacingAndGlyphs" textLength="95" x="89.5" y="204.9268">reader : UsbReader</text><rect fill="none" height="6" style="stroke: #C82930; stroke-width: 1.0;" width="6" x="77.5" y="212.7617"/><text fill="#000000" font-family="sans-serif" font-size="11" lengthAdjust="spacingAndGlyphs" textLength="43" x="89.5" y="218.7627">atr : ATR</text><rect fill="none" height="6" style="stroke: #C82930; stroke-width: 1.0;" width="6" x="77.5" y="226.5977"/><text fill="#000000" font-family="sans-serif" font-size="11" lengthAdjust="spacingAndGlyphs" textLength="123" x="89.5" y="232.5986">exclusiveThread : Thread</text><line style="stroke: #A80036; stroke-width: 1.5;" x1="70.5" x2="369.5" y1="239.0156" y2="239.0156"/><polygon fill="#4177AF" points="80.5,247.4336,76.5,253.4336,84.5,253.4336" style="stroke: #1963A0; stroke-width: 1.0;"/><text fill="#000000" font-family="sans-serif" font-size="11" lengthAdjust="spacingAndGlyphs" textLength="66" x="89.5" y="254.4346">IdentosCard()</text><ellipse cx="80.5" cy="265.2695" fill="#84BE84" rx="3" ry="3" style="stroke: #038048; stroke-width: 1.0;"/><text fill="#000000" font-family="sans-serif" font-size="11" lengthAdjust="spacingAndGlyphs" textLength="44" x="89.5" y="268.2705">getATR()</text><ellipse cx="80.5" cy="279.1055" fill="#84BE84" rx="3" ry="3" style="stroke: #038048; stroke-width: 1.0;"/><text fill="#000000" font-family="sans-serif" font-size="11" lengthAdjust="spacingAndGlyphs" textLength="62" x="89.5" y="282.1064">getProtocol()</text><ellipse cx="80.5" cy="292.9414" fill="#84BE84" rx="3" ry="3" style="stroke: #038048; stroke-width: 1.0;"/><text fill="#000000" font-family="sans-serif" font-size="11" lengthAdjust="spacingAndGlyphs" textLength="89" x="89.5" y="295.9424">getBasicChannel()</text><ellipse cx="80.5" cy="306.7773" fill="#84BE84" rx="3" ry="3" style="stroke: #038048; stroke-width: 1.0;"/><text fill="#000000" font-family="sans-serif" font-size="11" lengthAdjust="spacingAndGlyphs" textLength="105" x="89.5" y="309.7783">openLogicalChannel()</text><ellipse cx="80.5" cy="320.6133" fill="#84BE84" rx="3" ry="3" style="stroke: #038048; stroke-width: 1.0;"/><text fill="#000000" font-family="sans-serif" font-size="11" lengthAdjust="spacingAndGlyphs" textLength="80" x="89.5" y="323.6143">beginExclusive()</text><ellipse cx="80.5" cy="334.4492" fill="#84BE84" rx="3" ry="3" style="stroke: #038048; stroke-width: 1.0;"/><text fill="#000000" font-family="sans-serif" font-size="11" lengthAdjust="spacingAndGlyphs" textLength="72" x="89.5" y="337.4502">endExclusive()</text><ellipse cx="80.5" cy="348.2852" fill="#84BE84" rx="3" ry="3" style="stroke: #038048; stroke-width: 1.0;"/><text fill="#000000" font-family="sans-serif" font-size="11" lengthAdjust="spacingAndGlyphs" textLength="127" x="89.5" y="351.2861">transmitControlCommand()</text><ellipse cx="80.5" cy="362.1211" fill="#84BE84" rx="3" ry="3" style="stroke: #038048; stroke-width: 1.0;"/><text fill="#000000" font-family="sans-serif" font-size="11" lengthAdjust="spacingAndGlyphs" textLength="61" x="89.5" y="365.1221">disconnect()</text><polygon fill="#4177AF" points="80.5,371.957,76.5,377.957,84.5,377.957" style="stroke: #1963A0; stroke-width: 1.0;"/><text fill="#000000" font-family="sans-serif" font-size="11" lengthAdjust="spacingAndGlyphs" textLength="77" x="89.5" y="378.958">getUsbReader()</text><polygon fill="#4177AF" points="80.5,385.793,76.5,391.793,84.5,391.793" style="stroke: #1963A0; stroke-width: 1.0;"/><text fill="#000000" font-family="sans-serif" font-size="11" lengthAdjust="spacingAndGlyphs" textLength="83" x="89.5" y="392.7939">checkExclusive()</text><polygon fill="#4177AF" points="80.5,399.6289,76.5,405.6289,84.5,405.6289" style="stroke: #1963A0; stroke-width: 1.0;"/><text fill="#000000" font-family="sans-serif" font-size="11" lengthAdjust="spacingAndGlyphs" textLength="86" x="89.5" y="406.6299">checkCardOpen()</text><!--class Card--><rect fill="#FEFECE" filter="url(#frh57jctdq2ec)" height="48" id="Card" style="stroke: #A80036; stroke-width: 1.5;" width="59" x="190.5" y="8"/><ellipse cx="205.5" cy="24" fill="#ADD1B2" rx="11" ry="11" style="stroke: #A80036; stroke-width: 1.0;"/><path d="M207.5,20.5 Q207.7031,20 207.9375,19.75 Q208.1719,19.5 208.4375,19.5 Q208.9063,19.5 209.2031,19.7813 Q209.5,20.0625 209.5,20.7188 L209.5,22.2813 Q209.5,22.9375 209.2188,23.2188 Q208.9375,23.5 208.5,23.5 Q208.1094,23.5 207.8594,23.3281 Q207.6094,23.1563 207.5,22.7031 Q207.4531,22.3906 207.2813,22.2188 Q206.9688,21.8906 206.4063,21.6953 Q205.8438,21.5 205.2813,21.5 Q204.5781,21.5 203.9922,21.7813 Q203.4063,22.0625 202.9531,22.6875 Q202.5,23.3125 202.5,24.1719 L202.5,25.0938 Q202.5,26.125 203.3438,26.8125 Q204.1875,27.5 205.6875,27.5 Q206.5781,27.5 207.2031,27.2969 Q207.5625,27.1875 207.9688,26.8281 Q208.2344,26.625 208.375,26.5625 Q208.5156,26.5 208.6875,26.5 Q209.0156,26.5 209.2578,26.7578 Q209.5,27.0156 209.5,27.375 Q209.5,27.7188 209.1563,28.125 Q208.6563,28.7188 207.8594,29.0469 Q206.8125,29.5 205.5313,29.5 Q204.0313,29.5 202.8281,28.9063 Q201.8594,28.4375 201.1797,27.4219 Q200.5,26.4063 200.5,25.2031 L200.5,24.1094 Q200.5,22.8594 201.1016,21.7656 Q201.7031,20.6719 202.7578,20.0859 Q203.8125,19.5 205,19.5 Q205.7188,19.5 206.3438,19.75 Q206.9688,20 207.5,20.5 Z "/><text fill="#000000" font-family="sans-serif" font-size="12" lengthAdjust="spacingAndGlyphs" textLength="27" x="219.5" y="28.9102">Card</text><line style="stroke: #A80036; stroke-width: 1.5;" x1="191.5" x2="248.5" y1="40" y2="40"/><line style="stroke: #A80036; stroke-width: 1.5;" x1="191.5" x2="248.5" y1="48" y2="48"/><!--link Card to IdentosCard--><path d="M220,76.652 C220,88.376 220,101.738 220,115.801 " fill="none" id="Card-IdentosCard" style="stroke: #A80036; stroke-width: 1.0;"/><polygon fill="none" points="213,76.37,220,56.37,227,76.37,213,76.37" style="stroke: #A80036; stroke-width: 1.0;"/><!--
@startuml

    package de.gematik.ti.cardreader.provider.usb.identos.entities {
      class IdentosCard {
          {static} # PROTO_T_1 : String
          {static} - MANAGE_CHANNEL_COMMAND_OPEN : CommandAPDU
          {static} - RESPONSE_SUCCESS : int
          - reader : UsbReader
          - atr : ATR
          - exclusiveThread : Thread
          ~ IdentosCard()
          + getATR()
          + getProtocol()
          + getBasicChannel()
          + openLogicalChannel()
          + beginExclusive()
          + endExclusive()
          + transmitControlCommand()
          + disconnect()
          ~ getUsbReader()
          ~ checkExclusive()
          ~ checkCardOpen()
      }
    }

  IdentosCard -up-|> Card

@enduml

PlantUML version 1.2019.06(Fri May 24 19:10:25 CEST 2019)
(APACHE source distribution)
Java Runtime: OpenJDK Runtime Environment
JVM: OpenJDK 64-Bit Server VM
Java Version: 1.8.0_202-release-1483-b03
Operating System: Windows 7
OS Version: 6.1
Default Encoding: Cp1252
Language: de
Country: DE
--></g></svg>