<?xml version="1.0" encoding="UTF-8" standalone="no"?><svg xmlns="http://www.w3.org/2000/svg" xmlns:xlink="http://www.w3.org/1999/xlink" contentScriptType="application/ecmascript" contentStyleType="text/css" height="275px" preserveAspectRatio="none" style="width:438px;height:275px;" version="1.1" viewBox="0 0 438 275" width="438px" zoomAndPan="magnify"><defs><filter height="300%" id="f70tv1d7zzfi7" width="300%" x="-1" y="-1"><feGaussianBlur result="blurOut" stdDeviation="2.0"/><feColorMatrix in="blurOut" result="blurOut2" type="matrix" values="0 0 0 0 0 0 0 0 0 0 0 0 0 0 0 0 0 0 .4 0"/><feOffset dx="4.0" dy="4.0" in="blurOut2" result="blurOut3"/><feBlend in="SourceGraphic" in2="blurOut3" mode="normal"/></filter></defs><g><!--cluster de.gematik.ti.cardreader.provider.usb.identos.control--><polygon fill="#FFFFFF" filter="url(#f70tv1d7zzfi7)" points="22,80,406,80,413,103.6094,416,103.6094,416,263,22,263,22,80" style="stroke: #000000; stroke-width: 1.5;"/><line style="stroke: #000000; stroke-width: 1.5;" x1="22" x2="413" y1="103.6094" y2="103.6094"/><text fill="#000000" font-family="sans-serif" font-size="14" font-weight="bold" lengthAdjust="spacingAndGlyphs" textLength="378" x="26" y="96.5332">de.gematik.ti.cardreader.provider.usb.identos.control</text><!--class IdentosUsbReceiver--><rect fill="#FEFECE" filter="url(#f70tv1d7zzfi7)" height="131.0156" id="IdentosUsbReceiver" style="stroke: #A80036; stroke-width: 1.5;" width="216" x="111" y="116"/><ellipse cx="158.75" cy="132" fill="#ADD1B2" rx="11" ry="11" style="stroke: #A80036; stroke-width: 1.0;"/><path d="M160.75,128.5 Q160.9531,128 161.1875,127.75 Q161.4219,127.5 161.6875,127.5 Q162.1563,127.5 162.4531,127.7813 Q162.75,128.0625 162.75,128.7188 L162.75,130.2813 Q162.75,130.9375 162.4688,131.2188 Q162.1875,131.5 161.75,131.5 Q161.3594,131.5 161.1094,131.3281 Q160.8594,131.1563 160.75,130.7031 Q160.7031,130.3906 160.5313,130.2188 Q160.2188,129.8906 159.6563,129.6953 Q159.0938,129.5 158.5313,129.5 Q157.8281,129.5 157.2422,129.7813 Q156.6563,130.0625 156.2031,130.6875 Q155.75,131.3125 155.75,132.1719 L155.75,133.0938 Q155.75,134.125 156.5938,134.8125 Q157.4375,135.5 158.9375,135.5 Q159.8281,135.5 160.4531,135.2969 Q160.8125,135.1875 161.2188,134.8281 Q161.4844,134.625 161.625,134.5625 Q161.7656,134.5 161.9375,134.5 Q162.2656,134.5 162.5078,134.7578 Q162.75,135.0156 162.75,135.375 Q162.75,135.7188 162.4063,136.125 Q161.9063,136.7188 161.1094,137.0469 Q160.0625,137.5 158.7813,137.5 Q157.2813,137.5 156.0781,136.9063 Q155.1094,136.4375 154.4297,135.4219 Q153.75,134.4063 153.75,133.2031 L153.75,132.1094 Q153.75,130.8594 154.3516,129.7656 Q154.9531,128.6719 156.0078,128.0859 Q157.0625,127.5 158.25,127.5 Q158.9688,127.5 159.5938,127.75 Q160.2188,128 160.75,128.5 Z "/><text fill="#000000" font-family="sans-serif" font-size="12" lengthAdjust="spacingAndGlyphs" textLength="112" x="179.25" y="136.9102">IdentosUsbReceiver</text><line style="stroke: #A80036; stroke-width: 1.5;" x1="112" x2="326" y1="148" y2="148"/><rect fill="none" height="6" style="stroke: #C82930; stroke-width: 1.0;" width="6" x="119" y="157.418"/><text fill="#000000" font-family="sans-serif" font-size="11" lengthAdjust="spacingAndGlyphs" text-decoration="underline" textLength="65" x="131" y="163.4189">LOG : Logger</text><rect fill="none" height="6" style="stroke: #C82930; stroke-width: 1.0;" width="6" x="119" y="171.2539"/><text fill="#000000" font-family="sans-serif" font-size="11" lengthAdjust="spacingAndGlyphs" textLength="190" x="131" y="177.2549">cardReaders : Collection&lt;ICardReader&gt;</text><line style="stroke: #A80036; stroke-width: 1.5;" x1="112" x2="326" y1="183.6719" y2="183.6719"/><ellipse cx="122" cy="196.0898" fill="#84BE84" rx="3" ry="3" style="stroke: #038048; stroke-width: 1.0;"/><text fill="#000000" font-family="sans-serif" font-size="11" lengthAdjust="spacingAndGlyphs" textLength="105" x="131" y="199.0908">IdentosUsbReceiver()</text><ellipse cx="122" cy="209.9258" fill="#84BE84" rx="3" ry="3" style="stroke: #038048; stroke-width: 1.0;"/><text fill="#000000" font-family="sans-serif" font-size="11" lengthAdjust="spacingAndGlyphs" textLength="59" x="131" y="212.9268">onReceive()</text><ellipse cx="122" cy="223.7617" fill="#84BE84" rx="3" ry="3" style="stroke: #038048; stroke-width: 1.0;"/><text fill="#000000" font-family="sans-serif" font-size="11" lengthAdjust="spacingAndGlyphs" textLength="97" x="131" y="226.7627">onDeviceAttached()</text><ellipse cx="122" cy="237.5977" fill="#84BE84" rx="3" ry="3" style="stroke: #038048; stroke-width: 1.0;"/><text fill="#000000" font-family="sans-serif" font-size="11" lengthAdjust="spacingAndGlyphs" textLength="99" x="131" y="240.5986">onDeviceDetached()</text><!--class BroadcastReceiver--><rect fill="#FEFECE" filter="url(#f70tv1d7zzfi7)" height="48" id="BroadcastReceiver" style="stroke: #A80036; stroke-width: 1.5;" width="136" x="151" y="8"/><ellipse cx="166" cy="24" fill="#ADD1B2" rx="11" ry="11" style="stroke: #A80036; stroke-width: 1.0;"/><path d="M168,20.5 Q168.2031,20 168.4375,19.75 Q168.6719,19.5 168.9375,19.5 Q169.4063,19.5 169.7031,19.7813 Q170,20.0625 170,20.7188 L170,22.2813 Q170,22.9375 169.7188,23.2188 Q169.4375,23.5 169,23.5 Q168.6094,23.5 168.3594,23.3281 Q168.1094,23.1563 168,22.7031 Q167.9531,22.3906 167.7813,22.2188 Q167.4688,21.8906 166.9063,21.6953 Q166.3438,21.5 165.7813,21.5 Q165.0781,21.5 164.4922,21.7813 Q163.9063,22.0625 163.4531,22.6875 Q163,23.3125 163,24.1719 L163,25.0938 Q163,26.125 163.8438,26.8125 Q164.6875,27.5 166.1875,27.5 Q167.0781,27.5 167.7031,27.2969 Q168.0625,27.1875 168.4688,26.8281 Q168.7344,26.625 168.875,26.5625 Q169.0156,26.5 169.1875,26.5 Q169.5156,26.5 169.7578,26.7578 Q170,27.0156 170,27.375 Q170,27.7188 169.6563,28.125 Q169.1563,28.7188 168.3594,29.0469 Q167.3125,29.5 166.0313,29.5 Q164.5313,29.5 163.3281,28.9063 Q162.3594,28.4375 161.6797,27.4219 Q161,26.4063 161,25.2031 L161,24.1094 Q161,22.8594 161.6016,21.7656 Q162.2031,20.6719 163.2578,20.0859 Q164.3125,19.5 165.5,19.5 Q166.2188,19.5 166.8438,19.75 Q167.4688,20 168,20.5 Z "/><text fill="#000000" font-family="sans-serif" font-size="12" lengthAdjust="spacingAndGlyphs" textLength="104" x="180" y="28.9102">BroadcastReceiver</text><line style="stroke: #A80036; stroke-width: 1.5;" x1="152" x2="286" y1="40" y2="40"/><line style="stroke: #A80036; stroke-width: 1.5;" x1="152" x2="286" y1="48" y2="48"/><!--link BroadcastReceiver to IdentosUsbReceiver--><path d="M219,76.445 C219,88.817 219,102.568 219,115.912 " fill="none" id="BroadcastReceiver-IdentosUsbReceiver" style="stroke: #A80036; stroke-width: 1.0;"/><polygon fill="none" points="212,76.047,219,56.047,226,76.047,212,76.047" style="stroke: #A80036; stroke-width: 1.0;"/><!--
@startuml

    package de.gematik.ti.cardreader.provider.usb.identos.control {
      class IdentosUsbReceiver {
          {static} - LOG : Logger
          - cardReaders : Collection<ICardReader>
          + IdentosUsbReceiver()
          + onReceive()
          + onDeviceAttached()
          + onDeviceDetached()
      }
    }

  IdentosUsbReceiver -up-|> BroadcastReceiver

@enduml

PlantUML version 1.2019.06(Fri May 24 19:10:25 CEST 2019)
(APACHE source distribution)
Java Runtime: OpenJDK Runtime Environment
JVM: OpenJDK 64-Bit Server VM
Java Version: 1.8.0_202-release-1483-b03
Operating System: Windows 7
OS Version: 6.1
Default Encoding: Cp1252
Language: de
Country: DE
--></g></svg>