<?xml version="1.0" encoding="UTF-8" standalone="no"?><svg xmlns="http://www.w3.org/2000/svg" xmlns:xlink="http://www.w3.org/1999/xlink" contentScriptType="application/ecmascript" contentStyleType="text/css" height="247px" preserveAspectRatio="none" style="width:438px;height:247px;" version="1.1" viewBox="0 0 438 247" width="438px" zoomAndPan="magnify"><defs><filter height="300%" id="f1envstzy9rmze" width="300%" x="-1" y="-1"><feGaussianBlur result="blurOut" stdDeviation="2.0"/><feColorMatrix in="blurOut" result="blurOut2" type="matrix" values="0 0 0 0 0 0 0 0 0 0 0 0 0 0 0 0 0 0 .4 0"/><feOffset dx="4.0" dy="4.0" in="blurOut2" result="blurOut3"/><feBlend in="SourceGraphic" in2="blurOut3" mode="normal"/></filter></defs><g><!--cluster de.gematik.ti.cardreader.provider.usb.identos.control--><polygon fill="#FFFFFF" filter="url(#f1envstzy9rmze)" points="22,80,406,80,413,103.6094,416,103.6094,416,235,22,235,22,80" style="stroke: #000000; stroke-width: 1.5;"/><line style="stroke: #000000; stroke-width: 1.5;" x1="22" x2="413" y1="103.6094" y2="103.6094"/><text fill="#000000" font-family="sans-serif" font-size="14" font-weight="bold" lengthAdjust="spacingAndGlyphs" textLength="378" x="26" y="96.5332">de.gematik.ti.cardreader.provider.usb.identos.control</text><!--class IdentosCardReaderProvider--><rect fill="#FEFECE" filter="url(#f1envstzy9rmze)" height="103.3438" id="IdentosCardReaderProvider" style="stroke: #A80036; stroke-width: 1.5;" width="215" x="111.5" y="116"/><ellipse cx="139.55" cy="132" fill="#ADD1B2" rx="11" ry="11" style="stroke: #A80036; stroke-width: 1.0;"/><path d="M141.55,128.5 Q141.7531,128 141.9875,127.75 Q142.2219,127.5 142.4875,127.5 Q142.9563,127.5 143.2531,127.7813 Q143.55,128.0625 143.55,128.7188 L143.55,130.2813 Q143.55,130.9375 143.2688,131.2188 Q142.9875,131.5 142.55,131.5 Q142.1594,131.5 141.9094,131.3281 Q141.6594,131.1563 141.55,130.7031 Q141.5031,130.3906 141.3313,130.2188 Q141.0188,129.8906 140.4563,129.6953 Q139.8938,129.5 139.3313,129.5 Q138.6281,129.5 138.0422,129.7813 Q137.4563,130.0625 137.0031,130.6875 Q136.55,131.3125 136.55,132.1719 L136.55,133.0938 Q136.55,134.125 137.3938,134.8125 Q138.2375,135.5 139.7375,135.5 Q140.6281,135.5 141.2531,135.2969 Q141.6125,135.1875 142.0188,134.8281 Q142.2844,134.625 142.425,134.5625 Q142.5656,134.5 142.7375,134.5 Q143.0656,134.5 143.3078,134.7578 Q143.55,135.0156 143.55,135.375 Q143.55,135.7188 143.2063,136.125 Q142.7063,136.7188 141.9094,137.0469 Q140.8625,137.5 139.5813,137.5 Q138.0813,137.5 136.8781,136.9063 Q135.9094,136.4375 135.2297,135.4219 Q134.55,134.4063 134.55,133.2031 L134.55,132.1094 Q134.55,130.8594 135.1516,129.7656 Q135.7531,128.6719 136.8078,128.0859 Q137.8625,127.5 139.05,127.5 Q139.7688,127.5 140.3938,127.75 Q141.0188,128 141.55,128.5 Z "/><text fill="#000000" font-family="sans-serif" font-size="12" lengthAdjust="spacingAndGlyphs" textLength="154" x="156.45" y="136.9102">IdentosCardReaderProvider</text><line style="stroke: #A80036; stroke-width: 1.5;" x1="112.5" x2="325.5" y1="148" y2="148"/><rect fill="none" height="6" style="stroke: #C82930; stroke-width: 1.0;" width="6" x="119.5" y="157.418"/><text fill="#000000" font-family="sans-serif" font-size="11" lengthAdjust="spacingAndGlyphs" textLength="189" x="131.5" y="163.4189">providerDescriptor : ProviderDescriptor</text><line style="stroke: #A80036; stroke-width: 1.5;" x1="112.5" x2="325.5" y1="169.8359" y2="169.8359"/><ellipse cx="122.5" cy="182.2539" fill="#84BE84" rx="3" ry="3" style="stroke: #038048; stroke-width: 1.0;"/><text fill="#000000" font-family="sans-serif" font-size="11" lengthAdjust="spacingAndGlyphs" textLength="141" x="131.5" y="185.2549">IdentosCardReaderProvider()</text><ellipse cx="122.5" cy="196.0898" fill="#84BE84" rx="3" ry="3" style="stroke: #038048; stroke-width: 1.0;"/><text fill="#000000" font-family="sans-serif" font-size="11" lengthAdjust="spacingAndGlyphs" textLength="127" x="131.5" y="199.0908">getCardReaderController()</text><ellipse cx="122.5" cy="209.9258" fill="#84BE84" rx="3" ry="3" style="stroke: #038048; stroke-width: 1.0;"/><text fill="#000000" font-family="sans-serif" font-size="11" lengthAdjust="spacingAndGlyphs" textLength="73" x="131.5" y="212.9268">getDescriptor()</text><!--class ICardReaderControllerProvider--><rect fill="#FEFECE" filter="url(#f1envstzy9rmze)" height="48" id="ICardReaderControllerProvider" style="stroke: #A80036; stroke-width: 1.5;" width="202" x="118" y="8"/><ellipse cx="133" cy="24" fill="#ADD1B2" rx="11" ry="11" style="stroke: #A80036; stroke-width: 1.0;"/><path d="M135,20.5 Q135.2031,20 135.4375,19.75 Q135.6719,19.5 135.9375,19.5 Q136.4063,19.5 136.7031,19.7813 Q137,20.0625 137,20.7188 L137,22.2813 Q137,22.9375 136.7188,23.2188 Q136.4375,23.5 136,23.5 Q135.6094,23.5 135.3594,23.3281 Q135.1094,23.1563 135,22.7031 Q134.9531,22.3906 134.7813,22.2188 Q134.4688,21.8906 133.9063,21.6953 Q133.3438,21.5 132.7813,21.5 Q132.0781,21.5 131.4922,21.7813 Q130.9063,22.0625 130.4531,22.6875 Q130,23.3125 130,24.1719 L130,25.0938 Q130,26.125 130.8438,26.8125 Q131.6875,27.5 133.1875,27.5 Q134.0781,27.5 134.7031,27.2969 Q135.0625,27.1875 135.4688,26.8281 Q135.7344,26.625 135.875,26.5625 Q136.0156,26.5 136.1875,26.5 Q136.5156,26.5 136.7578,26.7578 Q137,27.0156 137,27.375 Q137,27.7188 136.6563,28.125 Q136.1563,28.7188 135.3594,29.0469 Q134.3125,29.5 133.0313,29.5 Q131.5313,29.5 130.3281,28.9063 Q129.3594,28.4375 128.6797,27.4219 Q128,26.4063 128,25.2031 L128,24.1094 Q128,22.8594 128.6016,21.7656 Q129.2031,20.6719 130.2578,20.0859 Q131.3125,19.5 132.5,19.5 Q133.2188,19.5 133.8438,19.75 Q134.4688,20 135,20.5 Z "/><text fill="#000000" font-family="sans-serif" font-size="12" lengthAdjust="spacingAndGlyphs" textLength="170" x="147" y="28.9102">ICardReaderControllerProvider</text><line style="stroke: #A80036; stroke-width: 1.5;" x1="119" x2="319" y1="40" y2="40"/><line style="stroke: #A80036; stroke-width: 1.5;" x1="119" x2="319" y1="48" y2="48"/><!--link ICardReaderControllerProvider to IdentosCardReaderProvider--><path d="M219,76.463 C219,89.043 219,102.885 219,115.863 " fill="none" id="ICardReaderControllerProvider-IdentosCardReaderProvider" style="stroke: #A80036; stroke-width: 1.0;"/><polygon fill="none" points="212,76.254,219,56.254,226,76.254,212,76.254" style="stroke: #A80036; stroke-width: 1.0;"/><!--
@startuml

    package de.gematik.ti.cardreader.provider.usb.identos.control {
      class IdentosCardReaderProvider {
          - providerDescriptor : ProviderDescriptor
          + IdentosCardReaderProvider()
          + getCardReaderController()
          + getDescriptor()
      }
    }

  IdentosCardReaderProvider -up-|> ICardReaderControllerProvider

@enduml

PlantUML version 1.2019.06(Fri May 24 19:10:25 CEST 2019)
(APACHE source distribution)
Java Runtime: OpenJDK Runtime Environment
JVM: OpenJDK 64-Bit Server VM
Java Version: 1.8.0_202-release-1483-b03
Operating System: Windows 7
OS Version: 6.1
Default Encoding: Cp1252
Language: de
Country: DE
--></g></svg>